<svg width="24" height="24" viewBox="0 0 24 24" xmlns="http://www.w3.org/2000/svg"><path d="M0 12C0 5.373 5.373 0 12 0s12 5.373 12 12-5.373 12-12 12S0 18.627 0 12zm14.369-2.8a.666.666 0 0 1-.658-.676v-1.96C13.71 5.59 12.94 4.8 12 4.8H7.71C6.767 4.8 6 5.58 6 6.56v10.764c0 .375.294.676.658.676h10.684a.666.666 0 0 0 .658-.676V10.84c0-.905-.715-1.639-1.596-1.639h-2.035zm-4.083 5.28h-.857a.866.866 0 0 1-.858-.88c0-.485.378-.88.858-.88h.857c.472 0 .857.388.857.88-.004.485-.381.88-.857.88zm0-4.4h-.857a.868.868 0 0 1-.858-.88c0-.485.378-.88.858-.88h.857c.472 0 .857.391.857.88-.004.485-.381.88-.857.88zm5.14 4.4a.866.866 0 0 1-.858-.88c0-.485.378-.88.857-.88.473 0 .857.388.857.88 0 .485-.381.88-.857.88z" fill="#FFF" fill-rule="nonzero"/></svg>