<svg width="18" height="18" viewBox="0 0 18 18" xmlns="http://www.w3.org/2000/svg" xmlns:xlink="http://www.w3.org/1999/xlink"><defs><path d="M0 9a9 9 0 1 1 18 0A9 9 0 0 1 0 9zm10.777-2.1a.5.5 0 0 1-.494-.507v-1.47c0-.73-.577-1.323-1.283-1.323H5.783c-.708 0-1.283.585-1.283 1.32v8.073a.5.5 0 0 0 .494.507h8.012a.5.5 0 0 0 .494-.507V8.13c0-.678-.537-1.229-1.197-1.229h-1.526zm-3.063 3.96h-.643a.65.65 0 0 1-.642-.66.65.65 0 0 1 .642-.66h.643a.65.65 0 0 1 .643.66.653.653 0 0 1-.643.66zm0-3.3h-.643a.65.65 0 0 1-.642-.66.65.65 0 0 1 .642-.66h.643a.65.65 0 0 1 .643.66.653.653 0 0 1-.643.66zm3.855 3.3a.65.65 0 0 1-.643-.66.65.65 0 0 1 .643-.66.65.65 0 0 1 .643.66.65.65 0 0 1-.643.66z" id="b"/><filter x="-211.1%" y="-172.2%" width="522.2%" height="522.2%" filterUnits="objectBoundingBox" id="a"><feOffset dy="7" in="SourceAlpha" result="shadowOffsetOuter1"/><feGaussianBlur stdDeviation="11.5" in="shadowOffsetOuter1" result="shadowBlurOuter1"/><feColorMatrix values="0 0 0 0 0.42745098 0 0 0 0 0.329411765 0 0 0 0 1 0 0 0 0.3 0" in="shadowBlurOuter1"/></filter></defs><g fill="#000" fill-rule="evenodd"><use filter="url(#a)" xlink:href="#b"/><use xlink:href="#b"/></g></svg>