<svg width="18" height="18" viewBox="0 0 18 18" xmlns="http://www.w3.org/2000/svg" xmlns:xlink="http://www.w3.org/1999/xlink"><defs><path d="M12.376 1H3.86C2.846 1 2 1.85 2 2.87v13.203C2 17.15 2.846 18 3.86 18h11.28c1.014 0 1.86-.85 1.86-1.87V5.647L12.376 1zm.79 14.167H5.608c-.507 0-.959-.454-.959-.964s.452-.963.959-.963h7.5c.508 0 .959.453.959.963s-.395.964-.903.964zm0-3.797H5.608c-.507 0-.959-.453-.959-.963s.452-.964.959-.964h7.5c.508 0 .959.397.959.964 0 .566-.395.963-.903.963zM11.53 6.383v-4.42l4.399 4.42H11.53z" id="b"/><filter x="-320%" y="-229.4%" width="740%" height="664.7%" filterUnits="objectBoundingBox" id="a"><feOffset dy="9" in="SourceAlpha" result="shadowOffsetOuter1"/><feGaussianBlur stdDeviation="14.5" in="shadowOffsetOuter1" result="shadowBlurOuter1"/><feColorMatrix values="0 0 0 0 0.42745098 0 0 0 0 0.329411765 0 0 0 0 1 0 0 0 0.3 0" in="shadowBlurOuter1"/></filter></defs><g fill="#000" fill-rule="evenodd"><use filter="url(#a)" xlink:href="#b"/><use xlink:href="#b"/></g></svg>