<svg width="24" height="24" viewBox="0 0 24 24" xmlns="http://www.w3.org/2000/svg"><path d="M6.6 3h10.8C19.38 3 21 4.62 21 6.6v10.8c0 1.98-1.62 3.6-3.6 3.6H6.6A3.61 3.61 0 0 1 3 17.4V6.6C3 4.62 4.62 3 6.6 3zm8.1 0H9.3v4.5L12 5.655l2.7 1.755V3zm-6.21 9.675l1.35 1.305c.09.09.135.18.09.315l-.315 1.8c-.045.315.27.54.54.36l1.665-.855c.09-.045.225-.045.36 0l1.665.9c.27.135.585-.09.54-.36l-.315-1.8c0-.135 0-.225.09-.315l1.35-1.305c.225-.225.09-.585-.18-.63l-1.845-.27a.304.304 0 0 1-.27-.18l-.81-1.665c-.135-.27-.54-.27-.675 0l-.81 1.665c-.045.09-.18.18-.27.18l-1.845.27c-.405 0-.495.36-.315.585z" fill="#FFF" fill-rule="nonzero"/></svg>