<svg width="18" height="18" viewBox="0 0 18 18" xmlns="http://www.w3.org/2000/svg" xmlns:xlink="http://www.w3.org/1999/xlink"><defs><path d="M13 2H4C2.35 2 1 3.35 1 5v9c0 1.65 1.35 3 3 3h9c1.65 0 3-1.35 3-3V5c0-1.65-1.35-3-3-3zM6.25 2h4.5v3.75L8.5 4.213 6.25 5.675V2zm5.175 8.062L10.3 11.15c-.075.075-.112.15-.075.262l.263 1.5c.037.263-.226.45-.45.3L8.65 12.5c-.075-.038-.187-.038-.3 0l-1.387.75c-.226.112-.488-.075-.45-.3l.262-1.5c0-.113 0-.188-.075-.263L5.575 10.1c-.188-.188-.075-.487.15-.525l1.537-.225a.253.253 0 0 0 .225-.15l.676-1.387c.112-.225.45-.225.562 0L9.4 9.2c.038.075.15.15.225.15l1.538.225c.337 0 .412.3.262.487z" id="b"/><filter x="-253.3%" y="-206.7%" width="606.7%" height="606.7%" filterUnits="objectBoundingBox" id="a"><feOffset dy="7" in="SourceAlpha" result="shadowOffsetOuter1"/><feGaussianBlur stdDeviation="11.5" in="shadowOffsetOuter1" result="shadowBlurOuter1"/><feColorMatrix values="0 0 0 0 0.42745098 0 0 0 0 0.329411765 0 0 0 0 1 0 0 0 0.3 0" in="shadowBlurOuter1"/></filter></defs><g transform="matrix(-1 0 0 1 17 0)" fill="#000" fill-rule="evenodd"><use filter="url(#a)" xlink:href="#b"/><use xlink:href="#b"/></g></svg>